<?xml version="1.0" encoding="UTF-8"?>
<svg id="Livello_1" xmlns="http://www.w3.org/2000/svg" version="1.1" viewBox="0 0 201.5 44.1">
  <!-- Generator: Adobe Illustrator 29.6.1, SVG Export Plug-In . SVG Version: 2.1.1 Build 9)  -->
  <defs>
    <style>
      .st0 {
        fill: #008d39;
      }

      .st1 {
        fill: #1d1d1b;
      }
    </style>
  </defs>
  <path class="st1" d="M135,8.1v15.4c0,3,2.2,5.3,6.3,5.3h4.1c4,0,6.2-2.3,6.2-5.3v-15.4h5v15.6c0,5.9-3.8,10.1-11,10.1h-4.7c-7.3,0-11-4.2-11-10.1v-15.6h5.1Z"/>
  <path class="st1" d="M16.4,8.1c6.7,0,11,4.2,11,12.8s-4.2,12.8-11,12.8H5.1v10.3H0v-25c0-7.4,3.2-11,9.3-11h7ZM5.1,28.8h10.7c4.4,0,6.4-2.3,6.4-7.8s-1.9-7.9-6.4-7.9h-5c-4.1,0-5.7,1.8-5.7,6.3v9.4Z"/>
  <path class="st1" d="M47,8.1v5h-8.9c-2.3,0-3.3,1.1-3.3,3.3v17.4h-5.1V15.6c0-5.2,1.9-7.5,6.9-7.5h10.4Z"/>
  <path class="st1" d="M66.5,8.1c6,0,8.6,2.9,8.6,7.9s-2.4,7.4-8.6,7.4h-12.1v1.8c0,2,1.1,3.6,3.9,3.6h15.5v5h-15.5c-6.4,0-8.9-3.6-8.9-8.5v-8.8c0-4.9,2.5-8.5,8.9-8.5h8.2ZM54.4,19.3h11.9c2.7,0,3.8-1.2,3.8-3.1s-1.1-3.2-3.6-3.2h-8.2c-2.8,0-3.9,1.6-3.9,3.6v2.7Z"/>
  <path class="st1" d="M107.1,8.1c8.6,0,12.8,4.1,12.8,11.2v14.5h-5.1v-14.5c0-4-2.3-6.3-7.7-6.3h-6v20.7h-5.1V13.1h-12.9c-.4,0-.6.2-.6.7v20h-5.1V12.1c0-3,1-4,3.6-4h26.1Z"/>
  <path class="st1" d="M127.4,8.1v25.7h-5.1V8.1h5.1Z"/>
  <path class="st1" d="M171.8,8.1c-8.6,0-12.8,4.1-12.8,11.2v14.5h5.1v-14.5c0-4,2.3-6.3,7.7-6.3h6v20.7h5.1V13.1h12.9c.4,0,.6.2.6.7v20h5.1V12.1c0-3-1-4-3.6-4h-26.1Z"/>
  <g>
    <path class="st0" d="M125.6,1.2h-.6c-.5,0-.7.2-.7.8v1.2h1.4c.6,0,.8-.3.8-1s-.2-1-.8-1Z"/>
    <path class="st0" d="M126,0h-1.6c-1.4,0-2.1.8-2.1,2.5v3.3h3.7c1.5,0,2.5-.9,2.5-2.9s-1-2.9-2.5-2.9ZM125.7,3.9h-1.4v1.3h-.7V2c0-1,.4-1.4,1.2-1.4h.9c.9,0,1.4.5,1.4,1.7s-.5,1.7-1.4,1.7Z"/>
  </g>
</svg>